<svg width="6" height="10" viewBox="0 0 6 10" fill="none" xmlns="http://www.w3.org/2000/svg">
<path fill-rule="evenodd" clip-rule="evenodd" d="M0.112982 0.112982C0.148705 0.0771683 0.191143 0.0487541 0.237864 0.0293668C0.284586 0.00997949 0.334673 0 0.385257 0C0.435842 0 0.485929 0.00997949 0.532651 0.0293668C0.579372 0.0487541 0.62181 0.0771683 0.657533 0.112982L5.27238 4.72783C5.30819 4.76355 5.3366 4.80599 5.35599 4.85271C5.37538 4.89943 5.38536 4.94952 5.38536 5.0001C5.38536 5.05068 5.37538 5.10077 5.35599 5.14749C5.3366 5.19422 5.30819 5.23665 5.27238 5.27238L0.657533 9.88722C0.585321 9.95943 0.487381 10 0.385257 10C0.283134 10 0.185194 9.95943 0.112982 9.88722C0.0407697 9.81501 0.000201348 9.71707 0.000201348 9.61494C0.000201348 9.51282 0.0407697 9.41488 0.112982 9.34267L4.45632 5.0001L0.112982 0.657534C0.077168 0.62181 0.0487537 0.579373 0.0293664 0.532651C0.00997912 0.485929 0 0.435842 0 0.385258C0 0.334673 0.00997912 0.284586 0.0293664 0.237865C0.0487537 0.191143 0.077168 0.148705 0.112982 0.112982Z" fill="white"/>
</svg>
