<svg width="69" height="72" viewBox="0 0 69 72" fill="none" xmlns="http://www.w3.org/2000/svg">
<g clip-path="url(#clip0)">
<path d="M66.3391 30.3181C63.7 28.114 62.1853 24.8448 62.1853 21.3494C62.1853 20.1581 62.3655 18.9744 62.72 17.8278C62.9702 17.0197 62.7691 16.1347 62.2002 15.5221C61.6298 14.9095 60.7779 14.6725 59.993 14.8987C58.9906 15.1866 57.9838 15.3328 56.9979 15.3328C51.3785 15.3328 46.6185 10.9862 45.9319 5.22354C45.8202 4.28004 45.1589 3.5043 44.2698 3.26726C43.3732 3.03023 42.4394 3.38578 41.9017 4.1569C39.8032 7.17367 36.4164 8.97449 32.8434 8.97449C28.3545 8.97449 24.3198 6.21477 22.5683 1.94512C22.1781 0.993917 21.2145 0.4352 20.2345 0.556794C19.2425 0.684545 18.4547 1.47875 18.3042 2.49922C17.4657 8.16797 12.8308 12.2822 7.28743 12.2822C6.20169 12.2822 5.11595 12.1159 4.05999 11.7881C3.02786 11.4649 1.90637 11.962 1.42233 12.9671C0.933818 13.9706 1.2168 15.1896 2.08956 15.8576C4.97892 18.0633 6.63658 21.4417 6.63658 25.128C6.63658 28.8082 4.90297 32.3005 2.0002 34.4708C1.25701 35.0264 0.915945 35.9961 1.14531 36.9134C1.37318 37.8323 2.12084 38.5141 3.03233 38.6296C8.11105 39.2883 11.1449 45.7652 10.8202 51.851C10.7785 52.6529 10.1902 57.2258 9.70318 61.3754C8.86169 68.5417 8.86169 68.5417 8.85573 68.6679C8.8185 69.6299 9.3636 70.5165 10.223 70.889C10.503 71.009 10.7979 71.069 11.0883 71.069C11.6915 71.069 12.2857 70.8135 12.7162 70.341C13.6083 69.3606 14.9293 67.3381 17.1917 63.8442C19.8621 59.7223 24.7993 51.8202 27.2702 50.358C30.4053 48.5003 33.034 50.5304 34.9866 55.1248C35.3559 55.9975 36.1855 56.5532 37.1313 56.5039C38.0532 56.4624 38.8545 55.8344 39.1479 54.9309C40.67 50.218 44.9206 47.055 49.7208 47.055C51.9593 47.055 54.1159 47.7353 55.9583 49.022C56.697 49.5407 57.6666 49.55 58.4187 49.0497C59.1708 48.548 59.5625 47.6306 59.4091 46.7194C59.2915 46.0068 59.2334 45.3604 59.2334 44.7462C59.2334 40.2118 61.8293 36.0776 65.8462 34.2199C66.5566 33.892 67.0496 33.2071 67.1493 32.4098C67.2521 31.6141 66.9453 30.8229 66.3391 30.3181ZM54.8264 43.321C48.3432 41.0045 40.9783 43.3225 36.9213 49.3314C35.4081 47.2874 31.4315 43.7196 26.2664 46.0884C23.3279 47.4351 20.1838 50.986 14.3798 59.8916C14.8683 54.3891 15.2228 52.7991 15.2898 51.9757C15.8215 45.5143 12.8413 38.3279 7.55403 35.3558C11.6825 30.1488 12.3364 22.787 8.86169 16.8212C14.2159 16.2763 18.7942 12.9763 21.1713 8.1849C24.0845 11.5711 28.2993 13.5951 32.8493 13.5951C36.4193 13.5951 39.8553 12.3145 42.5972 10.0488C45.0725 16.147 51.0687 20.2981 57.7798 19.9318C57.7396 20.4028 57.7187 20.8769 57.7187 21.3509C57.7187 25.1527 58.9936 28.7605 61.2947 31.6279C57.6204 34.3522 55.233 38.6203 54.8264 43.321Z" fill="white"/>
<path d="M14.9321 19.5178C14.5121 18.7267 13.337 19.2947 13.6617 20.1366C13.6617 20.1366 14.3989 22.5131 14.3513 24.477C14.2649 30.449 12.5581 32.1436 11.9936 33.8213C11.7181 34.6247 12.1276 35.5067 12.9051 35.7899C16.0819 36.9427 17.6532 24.634 14.9321 19.5178Z" fill="white"/>
<path d="M22.5219 41.0584C21.8159 41.3478 21.5314 42.1758 21.8487 42.8469C22.154 43.4964 22.9106 43.7673 23.5406 43.4518L23.5927 43.4241C29.5383 40.455 32.9027 41.5155 35.0921 43.5257C35.3736 43.7842 35.8055 43.7827 36.0855 43.5118C37.2383 42.3928 32.3085 37.0658 22.5219 41.0584Z" fill="white"/>
<path d="M49.9919 38.8604C45.427 36.9165 41.2211 39.7947 41.0453 39.9194C40.2336 40.4873 41.0587 41.7648 41.8823 41.1938C41.9166 41.1676 45.5909 38.6542 49.4245 40.2857C50.3434 40.6674 50.8975 39.2452 49.9919 38.8604Z" fill="white"/>
</g>
<defs>
<clipPath id="clip0">
<rect width="68.2455" height="70.5276" fill="white" transform="translate(0 0.541382)"/>
</clipPath>
</defs>
</svg>
