<svg width="6" height="11" viewBox="0 0 6 11" fill="none" xmlns="http://www.w3.org/2000/svg">
<path fill-rule="evenodd" clip-rule="evenodd" d="M0.0629446 0.595964C0.0828467 0.529462 0.10649 0.4767 0.132519 0.4407C0.158549 0.4047 0.186453 0.386169 0.214635 0.386169C0.242816 0.386169 0.270721 0.4047 0.296751 0.4407C0.32278 0.4767 0.346423 0.529462 0.366325 0.595964L2.78566 8.66105L5.20499 0.595964C5.22491 0.529569 5.24856 0.476902 5.27459 0.44097C5.30061 0.405038 5.32851 0.386543 5.35668 0.386543C5.38485 0.386543 5.41275 0.405038 5.43877 0.44097C5.4648 0.476902 5.48845 0.529569 5.50837 0.595964C5.52829 0.662358 5.54409 0.74118 5.55487 0.827928C5.56565 0.914676 5.5712 1.00765 5.5712 1.10155C5.5712 1.19544 5.56565 1.28842 5.55487 1.37517C5.54409 1.46192 5.52829 1.54074 5.50837 1.60713L2.93735 10.1764C2.91745 10.2429 2.8938 10.2956 2.86777 10.3316C2.84174 10.3676 2.81384 10.3862 2.78566 10.3862C2.75748 10.3862 2.72957 10.3676 2.70354 10.3316C2.67751 10.2956 2.65387 10.2429 2.63397 10.1764L0.0629446 1.60713C0.042992 1.5408 0.0271619 1.462 0.0163608 1.37524C0.00555977 1.28848 0 1.19548 0 1.10155C0 1.00762 0.00555977 0.914613 0.0163608 0.827857C0.0271619 0.7411 0.042992 0.662298 0.0629446 0.595964Z" fill="#8B8B8B"/>
</svg>
